<svg xmlns="http://www.w3.org/2000/svg" viewBox="0 0 64 64" fill="none">
  <!-- Mountain M -->
  <polyline
    points="3,38 14,20 17,23 28,5 37,23 44,13 60,38"
    stroke="#1C2836"
    stroke-width="3.5"
    stroke-linecap="round"
    stroke-linejoin="round"
    fill="none"
  />
  <!-- Waterline -->
  <line x1="10" y1="41" x2="54" y2="41" stroke="#1C2836" stroke-width="0.5" opacity="0.15" />
  <!-- Lighthouse beams -->
  <polygon points="32,47 24,35 40,35" fill="#E8A0A0" opacity="0.35" />
  <polygon points="32,47 24,59 40,59" fill="#A8C8E0" opacity="0.35" />
  <!-- Tower -->
  <polygon points="30,49 30.5,58 33.5,58 34,49" fill="#1C2836" />
  <!-- Gallery deck -->
  <rect x="29" y="48" width="6" height="2" rx="0.5" fill="#1C2836" />
  <!-- Lantern room -->
  <rect x="29.5" y="44.5" width="5" height="4" rx="1" fill="#F5F0EB" stroke="#1C2836" stroke-width="0.8" />
  <circle cx="32" cy="46.5" r="1" fill="#1C2836" />
  <!-- Dome -->
  <path d="M30.5,44.5 Q32,42 33.5,44.5" fill="#1C2836" />
  <!-- Base -->
  <rect x="28.5" y="58" width="7" height="1.5" rx="0.5" fill="#1C2836" opacity="0.3" />
</svg>
